<?xml version="1.0" encoding="utf-8"?>
<!-- Generator: Adobe Illustrator 26.3.1, SVG Export Plug-In . SVG Version: 6.00 Build 0)  -->
<svg version="1.1" id="Layer_1" xmlns="http://www.w3.org/2000/svg" xmlns:xlink="http://www.w3.org/1999/xlink" x="0px" y="0px"
	 viewBox="0 0 4160 2511.43" style="enable-background:new 0 0 4160 2511.43;" xml:space="preserve">
<style type="text/css">
	.st0{fill:#08201A;}
	.st1{fill:none;stroke:#020203;stroke-width:100;stroke-linecap:round;stroke-miterlimit:10;}
</style>
<g>
	<path class="st0" d="M1446.28,1172.26c-12.24,2.46-24.02,6.03-35.29,10.69c-45.22-81.2-136.77-106.17-211.66-85.78
		c-21.81,5.94-42.1,15.68-60.11,28.62c-37.85-76.05-121.06-121.22-204.22-105.87c-26.51,4.89-50.97,15.04-72.36,29.71L777.3,736.2
		c-27.31-100.32-132.76-164.28-230.25-139.65c-49.66,12.51-91.12,43.88-116.85,88.27c-25.73,44.4-32.46,96.2-18.94,145.87
		l208.81,767.01c-7.15-4.52-14.57-9.07-22.24-13.59c-92.16-54.36-170.87-76.33-233.97-65.26c-48.34,8.45-87.38,36.74-112.92,81.74
		c-43.14,76.01-12.22,149.93,21.31,198.55c33.67,48.84,86.38,99.11,165.85,158.21c116.1,86.33,229.84,183,347.73,295.52
		c53.97,51.5,141.24,122.69,250.59,169.27c113.66,48.42,223.79,58.8,327.35,30.84c2.46-0.55,8.09-1.89,16.33-4.13
		c61.8-16.82,269.68-84.94,376.5-262.68c67.65-112.57,81.15-246.07,40.11-396.79l-129.44-475.45
		C1640.38,1214.99,1543.29,1152.77,1446.28,1172.26z M1720.11,1810.22c35,128.57,24.48,240.95-31.27,334
		c-105.71,176.42-340.93,230.35-343.24,230.87c-0.64,0.14-1.29,0.3-1.92,0.48c-220.52,60.04-425.4-106.3-503.24-180.6
		c-120.28-114.8-236.48-213.54-355.23-301.84c-71.24-52.98-119.55-98.57-147.71-139.4c-40.24-58.35-29.26-92.63-17.51-113.35
		c12.5-22.02,28.4-35.21,49.62-40.99c2.62-0.71,5.32-1.32,8.11-1.8c90.64-15.93,236.2,87.54,284.62,128.74
		c13.3,11.34,32.35,12.69,47.02,3.3c14.67-9.38,21.53-27.28,16.93-44.18L487.91,809.82c-7.84-28.8-3.95-58.84,10.98-84.58
		c14.91-25.73,39.01-43.93,67.77-51.18c55.54-14.03,118.16,24.76,134.02,83l103.69,380.86c0.05,0.17,0.11,0.33,0.16,0.51
		l58.16,213.62c5.8,21.31,27.65,33.91,48.82,28.14c21.16-5.76,33.61-27.7,27.81-49.01l-53.29-195.74
		c16.22-19.31,38.29-32.24,63.58-36.9c55.46-10.24,111.2,26.98,126.92,84.73l7.72,28.36c0.09,0.33,0.2,0.65,0.3,0.97l58.33,214.25
		c5.8,21.31,27.65,33.91,48.82,28.14c21.16-5.76,33.61-27.7,27.81-49.01l-53.59-196.84c14.2-16.85,33.06-29,54.42-34.82
		c68.2-18.57,118.24,23.89,132.68,75.62c0.07,0.25,0.1,0.5,0.17,0.75l68.32,250.48c5.81,21.3,27.66,33.89,48.81,28.13
		c0.01,0,0.02,0,0.02,0c21.16-5.77,33.6-27.71,27.79-49.02l-60.47-221.72c7.72-3.56,15.89-6.21,24.45-7.92
		c56.18-11.29,112.67,25.67,128.58,84.13L1720.11,1810.22L1720.11,1810.22z"/>
	<path class="st0" d="M70.25,703.01l205.32-55.9c21.16-5.76,33.61-27.7,27.81-49.01c-5.8-21.31-27.65-33.91-48.82-28.14
		l-205.32,55.9c-21.16,5.76-33.61,27.7-27.81,49.01C27.23,696.17,49.09,708.77,70.25,703.01z"/>
	<path class="st0" d="M761.16,473.48c5.8,21.31,27.65,33.91,48.82,28.14l205.32-55.9c21.16-5.76,33.61-27.7,27.81-49.01
		s-27.65-33.91-48.82-28.14l-205.32,55.9C767.82,430.23,755.36,452.18,761.16,473.48z"/>
	<path class="st0" d="M679.93,332.7c9.81-2.67,18.59-9.1,24.01-18.67l105.39-185.69c10.86-19.14,4.21-43.56-14.85-54.55
		c-19.06-10.99-43.32-4.39-54.18,14.75L634.92,274.22c-10.86,19.14-4.21,43.56,14.85,54.55
		C659.29,334.27,670.13,335.37,679.93,332.7z"/>
	<path class="st0" d="M469.53,305.34c21.16-5.76,33.61-27.7,27.81-49.01L441.07,49.62c-5.8-21.31-27.65-33.91-48.82-28.14
		s-33.61,27.7-27.81,49.01l56.28,206.72C426.52,298.5,448.37,311.1,469.53,305.34z"/>
	<path class="st0" d="M271.87,431.65c9.54,5.5,20.36,6.59,30.17,3.92c9.81-2.67,18.59-9.1,24.01-18.67
		c10.86-19.14,4.21-43.56-14.85-54.55L126.23,255.7c-19.06-10.99-43.33-4.38-54.18,14.75C61.19,289.59,67.84,314.01,86.9,325
		L271.87,431.65z"/>
</g>
<g>
	<path class="st1" d="M3032.37,1988.96c36.43,18.22,79.3-8.28,79.3-49.01l0-1391.54c0-40.73-42.87-67.23-79.3-49.01L2427,912.48
		l-343.55,1.14c-72.04,0-130.44,61.66-130.44,137.73v377.64c0,76.07,58.4,137.73,130.44,137.73h318.13L3032.37,1988.96z"/>
	<path class="st1" d="M3350.8,957.92c154.18,154.18,154.18,404.15,0,558.33"/>
	<path class="st1" d="M3561.8,746.92c276.09,276.09,280.45,719.35,9.74,990.06"/>
	<path class="st1" d="M3786.45,522.27c402.62,402.62,408.98,1049.04,14.2,1443.82"/>
</g>
</svg>
