<?xml version="1.0" encoding="utf-8"?>
<!-- Generator: Adobe Illustrator 26.3.1, SVG Export Plug-In . SVG Version: 6.00 Build 0)  -->
<svg version="1.1" id="Layer_1" xmlns="http://www.w3.org/2000/svg" xmlns:xlink="http://www.w3.org/1999/xlink" x="0px" y="0px"
	 viewBox="0 0 4782.86 2511.43" style="enable-background:new 0 0 4782.86 2511.43;" xml:space="preserve">
<style type="text/css">
	.st0{fill:#FFFFFF;}
	.st1{fill:none;stroke:#FFFFFF;stroke-width:100;stroke-linecap:round;stroke-miterlimit:10;}
</style>
<g>
	<path class="st0" d="M1963.72,1170.03c-12.24,2.46-24.02,6.03-35.29,10.69c-45.22-81.2-136.77-106.17-211.66-85.78
		c-21.81,5.94-42.1,15.68-60.11,28.62c-37.85-76.05-121.06-121.22-204.22-105.87c-26.51,4.89-50.97,15.04-72.36,29.71l-85.33-313.44
		c-27.31-100.32-132.76-164.28-230.25-139.65c-49.66,12.51-91.12,43.88-116.85,88.27c-25.73,44.4-32.46,96.2-18.94,145.87
		l208.81,767.01c-7.15-4.52-14.57-9.07-22.24-13.59c-92.16-54.36-170.87-76.33-233.97-65.26c-48.34,8.45-87.38,36.74-112.92,81.74
		c-43.14,76.01-12.22,149.93,21.31,198.55c33.67,48.84,86.38,99.11,165.85,158.21c116.1,86.33,229.84,183,347.73,295.52
		c53.97,51.5,141.24,122.69,250.59,169.27c113.66,48.43,223.79,58.8,327.35,30.84c2.46-0.55,8.09-1.89,16.33-4.13
		c61.8-16.82,269.68-84.94,376.5-262.68c67.65-112.57,81.15-246.07,40.11-396.79l-129.44-475.45
		C2157.83,1212.75,2060.73,1150.54,1963.72,1170.03z M2237.56,1807.99c35,128.57,24.48,240.95-31.27,334
		c-105.71,176.42-340.93,230.35-343.24,230.87c-0.64,0.14-1.29,0.3-1.92,0.48c-220.52,60.04-425.4-106.3-503.24-180.6
		c-120.28-114.8-236.48-213.54-355.23-301.84c-71.24-52.98-119.55-98.57-147.71-139.4c-40.24-58.35-29.26-92.63-17.51-113.35
		c12.5-22.02,28.4-35.21,49.62-40.99c2.62-0.71,5.32-1.32,8.11-1.8c90.64-15.93,236.2,87.54,284.62,128.74
		c13.3,11.34,32.35,12.69,47.02,3.3c14.67-9.38,21.53-27.28,16.93-44.18l-238.39-875.64c-7.84-28.8-3.95-58.84,10.98-84.58
		c14.91-25.73,39.01-43.93,67.77-51.18c55.54-14.03,118.16,24.76,134.02,83l103.69,380.86c0.05,0.17,0.11,0.33,0.16,0.51
		l58.16,213.62c5.8,21.31,27.65,33.91,48.82,28.14c21.16-5.76,33.61-27.7,27.81-49.01l-53.29-195.74
		c16.22-19.31,38.29-32.24,63.58-36.9c55.46-10.24,111.2,26.98,126.92,84.73l7.72,28.36c0.09,0.33,0.2,0.65,0.3,0.97l58.33,214.25
		c5.8,21.31,27.65,33.91,48.82,28.14c21.16-5.76,33.61-27.7,27.81-49.01l-53.59-196.84c14.2-16.85,33.06-29,54.42-34.82
		c68.2-18.57,118.24,23.89,132.68,75.62c0.07,0.25,0.1,0.5,0.17,0.75l68.32,250.48c5.81,21.3,27.66,33.89,48.81,28.13
		c0.01,0,0.02,0,0.02,0c21.16-5.77,33.6-27.71,27.79-49.02l-60.47-221.72c7.72-3.56,15.89-6.21,24.45-7.92
		c56.18-11.29,112.67,25.67,128.58,84.13L2237.56,1807.99L2237.56,1807.99z"/>
	<path class="st0" d="M587.7,700.78l205.32-55.9c21.16-5.76,33.61-27.7,27.81-49.01s-27.65-33.91-48.82-28.14l-205.32,55.9
		c-21.16,5.76-33.61,27.7-27.81,49.01C544.67,693.94,566.54,706.54,587.7,700.78z"/>
	<path class="st0" d="M1278.61,471.25c5.8,21.31,27.65,33.91,48.82,28.14l205.32-55.9c21.16-5.76,33.61-27.7,27.81-49.01
		s-27.65-33.91-48.82-28.14l-205.32,55.9C1285.26,428,1272.81,449.95,1278.61,471.25z"/>
	<path class="st0" d="M1197.38,330.47c9.81-2.67,18.59-9.1,24.01-18.67l105.39-185.69c10.86-19.14,4.21-43.56-14.85-54.55
		c-19.06-10.99-43.32-4.39-54.18,14.75l-105.39,185.69c-10.86,19.14-4.21,43.56,14.85,54.55
		C1176.74,332.04,1187.57,333.14,1197.38,330.47z"/>
	<path class="st0" d="M986.98,303.11c21.16-5.76,33.61-27.7,27.81-49.01L958.51,47.39c-5.8-21.31-27.65-33.91-48.82-28.14
		c-21.16,5.76-33.61,27.7-27.81,49.01l56.28,206.72C943.96,296.27,965.82,308.87,986.98,303.11z"/>
	<path class="st0" d="M789.31,429.42c9.54,5.5,20.36,6.59,30.17,3.92c9.81-2.67,18.59-9.1,24.01-18.67
		c10.86-19.14,4.21-43.56-14.85-54.55L643.68,253.47c-19.06-10.99-43.33-4.38-54.18,14.75c-10.86,19.14-4.21,43.56,14.85,54.55
		L789.31,429.42z"/>
</g>
<g>
	<path class="st1" d="M3757.46,1988.96c31.64,18.22,68.88-8.28,68.88-49.01l0-1391.54c0-40.73-37.23-67.23-68.88-49.01
		l-525.79,413.08l-298.38,1.14c-62.57,0-113.29,61.66-113.29,137.73v377.64c0,76.07,50.72,137.73,113.29,137.73h276.31
		L3757.46,1988.96z"/>
	<path class="st1" d="M4034.03,957.92c133.91,154.18,133.91,404.15,0,558.33"/>
	<path class="st1" d="M4217.29,746.92c239.79,276.09,243.58,719.35,8.46,990.06"/>
	<path class="st1" d="M4412.41,522.27c349.7,402.62,355.22,1049.04,12.33,1443.82"/>
</g>
</svg>
